<?xml version="1.0" encoding="UTF-8" standalone="no"?>
<!-- Generator: Adobe Illustrator 19.0.0, SVG Export Plug-In . SVG Version: 6.00 Build 0)  -->

<svg
   xmlns:dc="http://purl.org/dc/elements/1.1/"
   xmlns:cc="http://creativecommons.org/ns#"
   xmlns:rdf="http://www.w3.org/1999/02/22-rdf-syntax-ns#"
   xmlns:svg="http://www.w3.org/2000/svg"
   xmlns="http://www.w3.org/2000/svg"
   xmlns:sodipodi="http://sodipodi.sourceforge.net/DTD/sodipodi-0.dtd"
   xmlns:inkscape="http://www.inkscape.org/namespaces/inkscape"
   version="1.1"
   id="Capa_1"
   x="0px"
   y="0px"
   viewBox="0 0 512 512"
   style="enable-background:new 0 0 512 512;"
   xml:space="preserve"
   sodipodi:docname="instagram_blanc.svg"
   inkscape:version="0.92.4 (5da689c313, 2019-01-14)"><metadata
   id="metadata55"><rdf:RDF><cc:Work
       rdf:about=""><dc:format>image/svg+xml</dc:format><dc:type
         rdf:resource="http://purl.org/dc/dcmitype/StillImage" /><dc:title></dc:title></cc:Work></rdf:RDF></metadata><defs
   id="defs53" /><sodipodi:namedview
   pagecolor="#ffffff"
   bordercolor="#666666"
   borderopacity="1"
   objecttolerance="10"
   gridtolerance="10"
   guidetolerance="10"
   inkscape:pageopacity="0"
   inkscape:pageshadow="2"
   inkscape:window-width="1920"
   inkscape:window-height="1001"
   id="namedview51"
   showgrid="false"
   inkscape:zoom="0.4609375"
   inkscape:cx="256"
   inkscape:cy="256"
   inkscape:window-x="-9"
   inkscape:window-y="-9"
   inkscape:window-maximized="1"
   inkscape:current-layer="Capa_1" />
<g
   id="g6"
   style="fill:#ffffff;fill-opacity:1">
	<g
   id="g4"
   style="fill:#ffffff;fill-opacity:1">
		<path
   d="M363.273,0H148.728C66.719,0,0,66.719,0,148.728v214.544C0,445.281,66.719,512,148.728,512h214.544    C445.281,512,512,445.281,512,363.273V148.728C512,66.719,445.281,0,363.273,0z M472,363.272C472,423.225,423.225,472,363.273,472    H148.728C88.775,472,40,423.225,40,363.273V148.728C40,88.775,88.775,40,148.728,40h214.544C423.225,40,472,88.775,472,148.728    V363.272z"
   id="path2"
   style="fill:#ffffff;fill-opacity:1" />
	</g>
</g>
<g
   id="g12"
   style="fill:#ffffff;fill-opacity:1">
	<g
   id="g10"
   style="fill:#ffffff;fill-opacity:1">
		<path
   d="M256,118c-76.094,0-138,61.906-138,138s61.906,138,138,138s138-61.906,138-138S332.094,118,256,118z M256,354    c-54.037,0-98-43.963-98-98s43.963-98,98-98s98,43.963,98,98S310.037,354,256,354z"
   id="path8"
   style="fill:#ffffff;fill-opacity:1" />
	</g>
</g>
<g
   id="g18"
   style="fill:#ffffff;fill-opacity:1">
	<g
   id="g16"
   style="fill:#ffffff;fill-opacity:1">
		<circle
   cx="396"
   cy="116"
   r="20"
   id="circle14"
   style="fill:#ffffff;fill-opacity:1" />
	</g>
</g>
<g
   id="g20">
</g>
<g
   id="g22">
</g>
<g
   id="g24">
</g>
<g
   id="g26">
</g>
<g
   id="g28">
</g>
<g
   id="g30">
</g>
<g
   id="g32">
</g>
<g
   id="g34">
</g>
<g
   id="g36">
</g>
<g
   id="g38">
</g>
<g
   id="g40">
</g>
<g
   id="g42">
</g>
<g
   id="g44">
</g>
<g
   id="g46">
</g>
<g
   id="g48">
</g>
</svg>